<svg width="133" height="34" viewBox="0 0 133 34" fill="none" xmlns="http://www.w3.org/2000/svg">
<g clip-path="url(#clip0_243_116)">
<path d="M17 0C7.60956 0 0 7.60956 0 17C0 26.3904 7.60956 34 17 34C26.3904 34 34 26.3904 34 17C34 7.60956 26.3904 0 17 0ZM17 30.9975C9.26999 30.9975 3.00253 24.73 3.00253 17C3.00253 9.26999 9.26999 3.00253 17 3.00253C24.73 3.00253 30.9975 9.26999 30.9975 17C30.9975 24.73 24.73 30.9975 17 30.9975Z" fill="#023F3A"/>
<path d="M21.9511 16.5827C19.5465 18.441 17.8646 18.5485 17.1548 17.6323C16.445 16.7117 16.9741 15.1115 19.3787 13.2532C21.7833 11.3949 25.8656 10.9045 25.8656 10.9045C25.8656 10.9045 24.3557 14.7244 21.9511 16.5827Z" fill="#E7AD4B"/>
<path d="M21.9511 21.9684C19.5465 23.8267 17.8646 23.9343 17.1548 23.018C16.445 22.0975 16.9741 20.4973 19.3787 18.639C21.7833 16.7807 25.8656 16.2903 25.8656 16.2903C25.8656 16.2903 24.3557 20.1144 21.9511 21.9684Z" fill="#DF922F"/>
<path d="M12.1219 16.5827C14.5265 18.441 16.2085 18.5485 16.9182 17.6323C17.628 16.7117 17.0989 15.1115 14.6943 13.2532C12.2897 11.3949 8.20746 10.9045 8.20746 10.9045C8.20746 10.9045 9.71733 14.7244 12.1219 16.5827Z" fill="#DF922F"/>
<path d="M12.1219 21.9684C14.5265 23.8267 16.2085 23.9343 16.9182 23.018C17.628 22.0975 17.0989 20.4973 14.6943 18.639C12.2897 16.7807 8.20746 16.2903 8.20746 16.2903C8.20746 16.2903 9.71733 20.1144 12.1219 21.9684Z" fill="#E7AD4B"/>
<path d="M17.2839 32.1245V6.06958H16.7204V32.1675C16.9097 32.1503 17.0946 32.1374 17.2839 32.1245Z" fill="#DF922F"/>
<path d="M19.1078 8.73242C19.1078 12.3587 18.1657 14.0234 17.0043 14.0234C15.8429 14.0234 14.9008 12.3544 14.9008 8.73242C14.9008 5.10615 17.0043 0.89917 17.0043 0.89917C17.0043 0.89917 19.1078 5.10615 19.1078 8.73242Z" fill="#E7AD4B"/>
<path d="M20.2735 32.1201C19.439 32.7955 18.712 33.2386 18.0539 33.5096C17.4043 33.7806 16.8666 33.8838 16.4235 33.8623C15.5417 33.815 15.0513 33.2859 14.9137 32.4772C14.8793 32.275 14.8707 32.0642 14.8793 31.8448C14.8836 31.6255 14.9137 31.3932 14.9696 31.1566C15.0255 30.92 15.1115 30.6791 15.2148 30.4253C15.3094 30.1715 15.4342 29.9091 15.5847 29.6381C15.8987 29.0961 16.2687 28.5154 16.7806 27.8873C17.0344 27.5733 17.2925 27.2464 17.5936 26.9066C17.8947 26.5667 18.2259 26.214 18.5614 25.8441C18.9056 25.4741 19.2755 25.13 19.6584 24.8117C20.0326 24.4934 20.4111 24.1966 20.7983 23.9256C21.5726 23.3835 22.3555 22.9362 23.0351 22.5834C23.7234 22.2307 24.3342 21.9726 24.773 21.8049C25.2118 21.6371 25.4785 21.564 25.4785 21.564C25.4785 21.564 25.3967 22.063 25.2247 22.8545C25.1386 23.2502 25.0053 23.7191 24.859 24.2353C24.7859 24.4934 24.7042 24.7644 24.6138 25.0397C24.5149 25.3193 24.4116 25.6032 24.3041 25.8914C24.1923 26.1796 24.0804 26.4764 23.96 26.7732C23.8309 27.07 23.689 27.3669 23.547 27.6594C23.4008 27.9562 23.2545 28.2487 23.0997 28.5369C22.9405 28.8251 22.7641 29.1047 22.5921 29.38C22.42 29.6553 22.2393 29.922 22.0587 30.1801C21.8737 30.4339 21.6758 30.6791 21.4779 30.9114C21.0865 31.3717 20.6951 31.7846 20.2735 32.1201Z" fill="#828B2F"/>
<path d="M12.2209 31.8876C13.236 32.7221 14.1308 33.2684 14.9438 33.591C15.7396 33.918 16.4106 34.0341 16.9612 33.9911C18.0625 33.9051 18.6948 33.2125 18.8884 32.1801C18.94 31.922 18.9486 31.6553 18.9486 31.3714C18.9486 31.0875 18.9185 30.7993 18.854 30.4982C18.7937 30.1971 18.6905 29.8917 18.57 29.569C18.4582 29.2464 18.3119 28.9152 18.1313 28.5754C17.7527 27.8957 17.3097 27.1601 16.6945 26.3772C16.3891 25.9858 16.0794 25.5728 15.7095 25.147C15.3438 24.7211 14.9438 24.2823 14.5351 23.8178C14.1179 23.3532 13.6662 22.9273 13.1973 22.5316C12.7414 22.1358 12.2768 21.7702 11.8036 21.4347C10.8529 20.7679 9.89368 20.2173 9.05486 19.7871C8.20744 19.357 7.45466 19.043 6.91266 18.8451C6.37065 18.6472 6.03943 18.5569 6.03943 18.5569C6.03943 18.5569 6.12976 19.1892 6.31903 20.1958C6.41367 20.6991 6.56853 21.2927 6.73629 21.9509C6.82232 22.2778 6.91266 22.6176 7.0159 22.9703C7.12774 23.3231 7.25249 23.6844 7.37723 24.0501C7.50628 24.4157 7.63963 24.7899 7.78158 25.1642C7.93214 25.5384 8.0999 25.9127 8.27197 26.2826C8.43973 26.6568 8.6204 27.0268 8.80537 27.3881C8.99464 27.7494 9.20542 28.1065 9.4119 28.4506C9.62268 28.7947 9.83346 29.1303 10.0528 29.4529C10.2722 29.7755 10.5174 30.0766 10.754 30.3691C11.2272 30.9542 11.6961 31.4703 12.2209 31.8876Z" fill="#D5DB3F"/>
</g>
<path d="M44.6835 8.06281C45.4738 8.06281 46.2045 8.27904 46.8756 8.71149C47.5466 9.12904 48.0835 9.70316 48.4861 10.4339C48.8887 11.1646 49.09 11.9847 49.09 12.8944C49.09 13.804 48.8887 14.6317 48.4861 15.3773C48.0835 16.108 47.5466 16.697 46.8756 17.1444C46.2045 17.5768 45.4738 17.7931 44.6835 17.7931H40.3664L40.5453 17.4352V22.5799C40.5453 22.908 40.4409 23.1839 40.2321 23.4075C40.0383 23.6163 39.7773 23.7207 39.4492 23.7207C39.1361 23.7207 38.8751 23.6163 38.6664 23.4075C38.4725 23.1839 38.3756 22.908 38.3756 22.5799V9.2036C38.3756 8.87553 38.4874 8.60711 38.7111 8.39833C38.9348 8.17465 39.2032 8.06281 39.5164 8.06281H44.6835ZM44.6835 15.6457C45.0712 15.6457 45.4216 15.5189 45.7348 15.2654C46.0628 15.0119 46.3238 14.6764 46.5177 14.2589C46.7264 13.8413 46.8308 13.3865 46.8308 12.8944C46.8308 12.4023 46.7264 11.9549 46.5177 11.5523C46.3238 11.1496 46.0628 10.829 45.7348 10.5904C45.4216 10.3369 45.0712 10.2102 44.6835 10.2102H40.3216L40.5453 9.87465V15.9365L40.344 15.6457H44.6835ZM60.2229 11.9549C60.536 11.9549 60.797 12.0668 61.0058 12.2904C61.2294 12.4992 61.3413 12.7676 61.3413 13.0957V18.9786C61.3413 20.5295 60.9088 21.7448 60.0439 22.6247C59.179 23.4896 57.9562 23.922 56.3755 23.922C54.8097 23.922 53.5944 23.4896 52.7294 22.6247C51.8794 21.7448 51.4544 20.5295 51.4544 18.9786V13.0957C51.4544 12.7676 51.5588 12.4992 51.7676 12.2904C51.9764 12.0668 52.2448 11.9549 52.5729 11.9549C52.886 11.9549 53.147 12.0668 53.3558 12.2904C53.5794 12.4992 53.6913 12.7676 53.6913 13.0957V18.9786C53.6913 19.9479 53.915 20.6711 54.3623 21.1483C54.8246 21.6255 55.4957 21.8641 56.3755 21.8641C57.2702 21.8641 57.9487 21.6255 58.411 21.1483C58.8733 20.6711 59.1044 19.9479 59.1044 18.9786V13.0957C59.1044 12.7676 59.2088 12.4992 59.4176 12.2904C59.6264 12.0668 59.8948 11.9549 60.2229 11.9549ZM63.7583 21.8865C63.6241 21.6777 63.5644 21.4391 63.5794 21.1707C63.5943 20.8874 63.7508 20.6488 64.0491 20.4549C64.2579 20.3207 64.4741 20.2685 64.6978 20.2983C64.9364 20.3132 65.1601 20.4251 65.3688 20.6339C65.7864 21.0961 66.2487 21.4615 66.7557 21.7299C67.2776 21.9983 67.9039 22.1325 68.6346 22.1325C68.9329 22.1176 69.2386 22.0729 69.5517 21.9983C69.8649 21.9089 70.1333 21.7597 70.357 21.551C70.5807 21.3273 70.6925 21.0067 70.6925 20.5891C70.6925 20.2163 70.5732 19.9181 70.3346 19.6944C70.096 19.4707 69.7829 19.2918 69.3951 19.1575C69.0074 19.0084 68.5899 18.8742 68.1425 18.7549C67.6653 18.6207 67.1807 18.4716 66.6886 18.3075C66.2114 18.1435 65.7789 17.9347 65.3912 17.6812C65.0035 17.4128 64.6829 17.0698 64.4294 16.6523C64.1908 16.2347 64.0715 15.7203 64.0715 15.1089C64.0715 14.408 64.2653 13.804 64.653 13.297C65.0557 12.79 65.5701 12.3948 66.1965 12.1115C66.8377 11.8282 67.5311 11.6865 68.2767 11.6865C68.7092 11.6865 69.164 11.7461 69.6412 11.8654C70.1184 11.9698 70.5807 12.1413 71.028 12.3799C71.4754 12.6185 71.8631 12.9317 72.1912 13.3194C72.3403 13.5132 72.4223 13.7444 72.4373 14.0128C72.4671 14.2812 72.3478 14.5198 72.0794 14.7286C71.9004 14.8777 71.6842 14.9448 71.4307 14.9299C71.1772 14.915 70.9684 14.833 70.8044 14.6839C70.521 14.326 70.1557 14.0501 69.7083 13.8562C69.2609 13.6475 68.7539 13.5431 68.1873 13.5431C67.9039 13.5431 67.6057 13.5878 67.2925 13.6773C66.9943 13.7518 66.7408 13.8935 66.532 14.1023C66.3232 14.3111 66.2188 14.6168 66.2188 15.0194C66.2188 15.3922 66.3381 15.6904 66.5767 15.9141C66.8302 16.1378 67.1583 16.3242 67.5609 16.4733C67.9636 16.6225 68.4035 16.7567 68.8807 16.876C69.343 16.9953 69.7978 17.1369 70.2451 17.301C70.7074 17.465 71.1175 17.6812 71.4754 17.9497C71.8482 18.2032 72.1465 18.5387 72.3701 18.9562C72.6087 19.3589 72.728 19.8733 72.728 20.4997C72.728 21.2304 72.5118 21.8567 72.0794 22.3786C71.6618 22.8856 71.125 23.2733 70.4688 23.5418C69.8276 23.8102 69.1491 23.9444 68.4333 23.9444C67.5833 23.9444 66.7333 23.7953 65.8833 23.497C65.0482 23.1839 64.3399 22.647 63.7583 21.8865ZM84.9491 11.776C85.2771 11.776 85.5456 11.8878 85.7543 12.1115C85.9631 12.3203 86.0675 12.5887 86.0675 12.9168V22.5799C86.0675 22.908 85.9631 23.1839 85.7543 23.4075C85.5456 23.6163 85.2771 23.7207 84.9491 23.7207C84.6359 23.7207 84.3675 23.6163 84.1438 23.4075C83.935 23.1839 83.8306 22.908 83.8306 22.5799V20.9694L84.3004 21.0365C84.3004 21.3049 84.1885 21.6032 83.9649 21.9312C83.7561 22.2593 83.4653 22.5799 83.0925 22.8931C82.7197 23.1913 82.2798 23.4448 81.7727 23.6536C81.2657 23.8475 80.7214 23.9444 80.1399 23.9444C79.1109 23.9444 78.1863 23.6834 77.3662 23.1615C76.546 22.6247 75.8973 21.8939 75.4201 20.9694C74.9429 20.0448 74.7043 18.9935 74.7043 17.8154C74.7043 16.6075 74.9429 15.5488 75.4201 14.6391C75.8973 13.7146 76.5385 12.9913 77.3438 12.4694C78.164 11.9475 79.0736 11.6865 80.0727 11.6865C80.714 11.6865 81.303 11.7909 81.8399 11.9996C82.3916 12.2084 82.8688 12.4768 83.2714 12.8049C83.6741 13.133 83.9798 13.4834 84.1885 13.8562C84.4122 14.2141 84.5241 14.5571 84.5241 14.8852L83.8306 14.9523V12.9168C83.8306 12.6036 83.935 12.3352 84.1438 12.1115C84.3675 11.8878 84.6359 11.776 84.9491 11.776ZM80.3859 21.8865C81.0868 21.8865 81.7056 21.7075 82.2425 21.3497C82.7793 20.9918 83.1969 20.5071 83.4951 19.8957C83.7934 19.2694 83.9425 18.576 83.9425 17.8154C83.9425 17.04 83.7934 16.3466 83.4951 15.7352C83.1969 15.1238 82.7793 14.6391 82.2425 14.2812C81.7056 13.9233 81.0868 13.7444 80.3859 13.7444C79.6999 13.7444 79.0885 13.9233 78.5517 14.2812C78.0298 14.6391 77.6122 15.1238 77.2991 15.7352C77.0008 16.3466 76.8517 17.04 76.8517 17.8154C76.8517 18.576 77.0008 19.2694 77.2991 19.8957C77.6122 20.5071 78.0298 20.9918 78.5517 21.3497C79.0885 21.7075 79.6999 21.8865 80.3859 21.8865Z" fill="#023F3A"/>
<path d="M94.5472 23.7207C94.1893 23.7207 93.8985 23.6163 93.6748 23.4075C93.4661 23.1839 93.3617 22.908 93.3617 22.5799V9.18123H95.7551V22.5799C95.7551 22.908 95.6358 23.1839 95.3972 23.4075C95.1735 23.6163 94.8902 23.7207 94.5472 23.7207ZM89.4696 10.2102C89.1564 10.2102 88.888 10.1132 88.6643 9.91939C88.4406 9.71061 88.3288 9.44219 88.3288 9.11412C88.3288 8.80097 88.4406 8.54746 88.6643 8.3536C88.888 8.15974 89.1564 8.06281 89.4696 8.06281H99.6472C99.9604 8.06281 100.221 8.16719 100.43 8.37596C100.654 8.56982 100.766 8.82333 100.766 9.13649C100.766 9.46456 100.654 9.72553 100.43 9.91939C100.221 10.1132 99.9604 10.2102 99.6472 10.2102H89.4696ZM110.463 11.776C110.791 11.776 111.06 11.8878 111.268 12.1115C111.477 12.3203 111.581 12.5887 111.581 12.9168V22.5799C111.581 22.908 111.477 23.1839 111.268 23.4075C111.06 23.6163 110.791 23.7207 110.463 23.7207C110.15 23.7207 109.881 23.6163 109.658 23.4075C109.449 23.1839 109.345 22.908 109.345 22.5799V20.9694L109.814 21.0365C109.814 21.3049 109.703 21.6032 109.479 21.9312C109.27 22.2593 108.979 22.5799 108.606 22.8931C108.234 23.1913 107.794 23.4448 107.287 23.6536C106.78 23.8475 106.235 23.9444 105.654 23.9444C104.625 23.9444 103.7 23.6834 102.88 23.1615C102.06 22.6247 101.411 21.8939 100.934 20.9694C100.457 20.0448 100.218 18.9935 100.218 17.8154C100.218 16.6075 100.457 15.5488 100.934 14.6391C101.411 13.7146 102.053 12.9913 102.858 12.4694C103.678 11.9475 104.588 11.6865 105.587 11.6865C106.228 11.6865 106.817 11.7909 107.354 11.9996C107.906 12.2084 108.383 12.4768 108.785 12.8049C109.188 13.133 109.494 13.4834 109.703 13.8562C109.926 14.2141 110.038 14.5571 110.038 14.8852L109.345 14.9523V12.9168C109.345 12.6036 109.449 12.3352 109.658 12.1115C109.881 11.8878 110.15 11.776 110.463 11.776ZM105.9 21.8865C106.601 21.8865 107.22 21.7075 107.756 21.3497C108.293 20.9918 108.711 20.5071 109.009 19.8957C109.307 19.2694 109.456 18.576 109.456 17.8154C109.456 17.04 109.307 16.3466 109.009 15.7352C108.711 15.1238 108.293 14.6391 107.756 14.2812C107.22 13.9233 106.601 13.7444 105.9 13.7444C105.214 13.7444 104.603 13.9233 104.066 14.2812C103.544 14.6391 103.126 15.1238 102.813 15.7352C102.515 16.3466 102.366 17.04 102.366 17.8154C102.366 18.576 102.515 19.2694 102.813 19.8957C103.126 20.5071 103.544 20.9918 104.066 21.3497C104.603 21.7075 105.214 21.8865 105.9 21.8865ZM120.777 11.6865C121.836 11.6865 122.656 11.9102 123.238 12.3575C123.819 12.79 124.222 13.379 124.445 14.1246C124.684 14.8554 124.803 15.6755 124.803 16.5852V22.5799C124.803 22.908 124.691 23.1839 124.468 23.4075C124.259 23.6163 123.998 23.7207 123.685 23.7207C123.357 23.7207 123.088 23.6163 122.88 23.4075C122.671 23.1839 122.566 22.908 122.566 22.5799V16.6075C122.566 16.0707 122.492 15.5935 122.343 15.176C122.194 14.7435 121.933 14.4005 121.56 14.147C121.202 13.8786 120.695 13.7444 120.039 13.7444C119.427 13.7444 118.891 13.8786 118.428 14.147C117.966 14.4005 117.601 14.7435 117.332 15.176C117.079 15.5935 116.952 16.0707 116.952 16.6075V22.5799C116.952 22.908 116.84 23.1839 116.616 23.4075C116.408 23.6163 116.147 23.7207 115.834 23.7207C115.505 23.7207 115.237 23.6163 115.028 23.4075C114.82 23.1839 114.715 22.908 114.715 22.5799V13.0957C114.715 12.7676 114.82 12.4992 115.028 12.2904C115.237 12.0668 115.505 11.9549 115.834 11.9549C116.147 11.9549 116.408 12.0668 116.616 12.2904C116.84 12.4992 116.952 12.7676 116.952 13.0957V14.3483L116.549 14.572C116.654 14.2439 116.833 13.9159 117.086 13.5878C117.355 13.2448 117.675 12.9317 118.048 12.6483C118.421 12.3501 118.838 12.1189 119.301 11.9549C119.763 11.776 120.255 11.6865 120.777 11.6865ZM130.504 22.5799C130.489 22.908 130.362 23.1839 130.123 23.4075C129.9 23.6163 129.631 23.7207 129.318 23.7207C128.975 23.7207 128.692 23.6163 128.468 23.4075C128.259 23.1839 128.155 22.908 128.155 22.5799V9.2036C128.155 8.87553 128.267 8.60711 128.491 8.39833C128.714 8.17465 129.005 8.06281 129.363 8.06281C129.661 8.06281 129.922 8.17465 130.146 8.39833C130.384 8.60711 130.504 8.87553 130.504 9.2036V22.5799Z" fill="#DF922F"/>
<defs>
<clipPath id="clip0_243_116">
<rect width="34" height="34" fill="white"/>
</clipPath>
</defs>
</svg>
