<svg width="110" height="110" viewBox="0 0 110 110" fill="none" xmlns="http://www.w3.org/2000/svg">
<path d="M55 0C24.64 0 0 24.64 0 55C0 85.36 24.64 110 55 110C85.36 110 110 85.36 110 55C110 24.64 85.36 0 55 0ZM55 22C65.615 22 74.25 30.635 74.25 41.25C74.25 51.865 65.615 60.5 55 60.5C44.385 60.5 35.75 51.865 35.75 41.25C35.75 30.635 44.385 22 55 22ZM55 99C43.835 99 30.635 94.49 21.23 83.16C30.8638 75.6015 42.7549 71.4934 55 71.4934C67.2451 71.4934 79.1362 75.6015 88.77 83.16C79.365 94.49 66.165 99 55 99Z" fill="#2C774B"/>
</svg>
