<svg width="428" height="298" viewBox="0 0 428 298" fill="none" xmlns="http://www.w3.org/2000/svg">
<g clip-path="url(#clip0_304_2089)">
<path d="M389.954 -13H38.0465C17.0303 -13 0 4.03032 0 25.0465V163.418C11.2781 174.673 30.1428 185 61.5764 190.231C152.163 205.337 192.927 123.809 275.973 157.009C359.018 190.231 348.442 259.666 419.394 282.313C422.361 283.264 425.214 284.125 428 284.963V25.0465C428 4.03032 410.97 -13 389.954 -13Z" fill="url(#paint0_linear_304_2089)"/>
<path d="M182.73 83.768H173.098V65.24H168.97V87H183.338L182.73 83.768ZM195.432 87.448C193.171 87.448 191.24 86.9467 189.64 85.944C188.062 84.9413 186.856 83.5867 186.024 81.88C185.192 80.1733 184.776 78.2853 184.776 76.216C184.776 73.976 185.224 72.0027 186.12 70.296C187.016 68.5893 188.264 67.2453 189.864 66.264C191.464 65.2827 193.32 64.7707 195.432 64.728C197.715 64.728 199.646 65.24 201.224 66.264C202.824 67.2667 204.03 68.6107 204.84 70.296C205.672 71.9813 206.088 73.8693 206.088 75.96C206.088 78.2213 205.64 80.2053 204.744 81.912C203.848 83.6187 202.611 84.9627 201.032 85.944C199.454 86.904 197.587 87.4053 195.432 87.448ZM195.432 83.96C196.606 83.96 197.662 83.672 198.6 83.096C199.56 82.4987 200.328 81.6133 200.904 80.44C201.502 79.2667 201.8 77.784 201.8 75.992C201.8 74.4773 201.544 73.144 201.032 71.992C200.542 70.84 199.816 69.9333 198.856 69.272C197.918 68.5893 196.798 68.248 195.496 68.248C194.366 68.248 193.31 68.5787 192.328 69.24C191.347 69.9013 190.558 70.8187 189.96 71.992C189.384 73.1653 189.096 74.5627 189.096 76.184C189.096 77.6987 189.352 79.0427 189.864 80.216C190.376 81.3893 191.102 82.3067 192.04 82.968C193 83.6293 194.131 83.96 195.432 83.96ZM217.714 78.296H222.29V83.608C221.885 83.7147 221.426 83.8 220.914 83.864C220.402 83.928 219.794 83.96 219.09 83.96C217.831 83.96 216.711 83.6507 215.73 83.032C214.77 82.392 214.023 81.4853 213.49 80.312C212.957 79.1387 212.69 77.7733 212.69 76.216C212.69 74.872 212.871 73.7093 213.234 72.728C213.618 71.7253 214.13 70.904 214.77 70.264C215.431 69.6027 216.189 69.112 217.042 68.792C217.895 68.4507 218.802 68.28 219.762 68.28C220.402 68.28 220.935 68.3227 221.362 68.408C221.81 68.472 222.258 68.568 222.706 68.696C223.175 68.824 223.719 68.984 224.338 69.176L225.65 66.2C225.01 65.8587 224.306 65.592 223.538 65.4C222.791 65.1867 222.066 65.0373 221.362 64.952C220.679 64.8453 220.125 64.792 219.698 64.792C218.055 64.792 216.541 65.08 215.154 65.656C213.789 66.2107 212.594 67 211.57 68.024C210.546 69.048 209.757 70.2533 209.202 71.64C208.647 73.0267 208.37 74.552 208.37 76.216C208.37 78.2853 208.797 80.1733 209.65 81.88C210.525 83.5867 211.762 84.9413 213.362 85.944C214.983 86.9467 216.925 87.448 219.186 87.448C220.082 87.448 220.935 87.3733 221.746 87.224C222.578 87.096 223.346 86.9147 224.05 86.68C224.775 86.424 225.415 86.1467 225.97 85.848V75.096H218.034L217.714 78.296ZM234.223 87V65.24H230.095V87H234.223ZM243.786 87V72.44L244.618 73.688L253.866 87H258.026V65.24H253.866V79.768L252.49 77.816L243.786 65.24H239.658V87H243.786Z" fill="white"/>
</g>
<defs>
<linearGradient id="paint0_linear_304_2089" x1="-8.91532" y1="-94.5644" x2="539.134" y2="347.801" gradientUnits="userSpaceOnUse">
<stop stop-color="#62AC7C"/>
<stop offset="1" stop-color="#2C774B"/>
</linearGradient>
<clipPath id="clip0_304_2089">
<rect width="428" height="297.985" fill="white"/>
</clipPath>
</defs>
</svg>
