<svg width="102" height="102" viewBox="0 0 102 102" fill="none" xmlns="http://www.w3.org/2000/svg">
<g clip-path="url(#clip0_244_142)">
<path d="M50.9059 0C22.9321 0 0.263489 22.6686 0.263489 50.6424C0.263489 78.6162 22.9321 101.285 50.9059 101.285C78.8797 101.285 101.548 78.6162 101.548 50.6424C101.548 22.6686 78.8797 0 50.9059 0ZM50.9059 92.3404C27.8785 92.3404 9.20792 73.6698 9.20792 50.6424C9.20792 27.615 27.8785 8.94443 50.9059 8.94443C73.9333 8.94443 92.6038 27.615 92.6038 50.6424C92.6038 73.6698 73.9333 92.3404 50.9059 92.3404Z" fill="#023F3A"/>
<path d="M65.6552 49.3989C58.492 54.9347 53.4816 55.255 51.3672 52.5256C49.2528 49.7833 50.829 45.0163 57.9922 39.4805C65.1555 33.9447 77.3163 32.4839 77.3163 32.4839C77.3163 32.4839 72.8185 43.863 65.6552 49.3989Z" fill="#E7AD4B"/>
<path d="M65.6552 65.4423C58.492 70.9781 53.4816 71.2985 51.3672 68.569C49.2528 65.8267 50.829 61.0598 57.9922 55.524C65.1555 49.9882 77.3163 48.5273 77.3163 48.5273C77.3163 48.5273 72.8185 59.9193 65.6552 65.4423Z" fill="#DF922F"/>
<path d="M36.3744 49.3989C43.5376 54.9347 48.548 55.255 50.6624 52.5256C52.7768 49.7833 51.2006 45.0163 44.0374 39.4805C36.8742 33.9447 24.7133 32.4839 24.7133 32.4839C24.7133 32.4839 29.2112 43.863 36.3744 49.3989Z" fill="#DF922F"/>
<path d="M36.3744 65.4423C43.5376 70.9781 48.548 71.2985 50.6624 68.569C52.7768 65.8267 51.2006 61.0598 44.0374 55.524C36.8742 49.9882 24.7133 48.5273 24.7133 48.5273C24.7133 48.5273 29.2112 59.9193 36.3744 65.4423Z" fill="#E7AD4B"/>
<path d="M51.7516 95.6977V18.0811H50.0729V95.8258C50.6368 95.7746 51.1878 95.7361 51.7516 95.6977Z" fill="#DF922F"/>
<path d="M57.1849 26.0132C57.1849 36.8157 54.3786 41.7749 50.9187 41.7749C47.4588 41.7749 44.6525 36.8029 44.6525 26.0132C44.6525 15.2107 50.9187 2.67822 50.9187 2.67822C50.9187 2.67822 57.1849 15.2107 57.1849 26.0132Z" fill="#E7AD4B"/>
<path d="M60.6576 95.6852C58.1716 97.6971 56.006 99.017 54.0454 99.8243C52.1104 100.632 50.5086 100.939 49.1887 100.875C46.5618 100.734 45.1009 99.1579 44.6909 96.7488C44.5883 96.1466 44.5627 95.5186 44.5883 94.8651C44.6012 94.2116 44.6909 93.5196 44.8574 92.8148C45.024 92.11 45.2803 91.3924 45.5879 90.6364C45.8698 89.8803 46.2414 89.0987 46.6899 88.2913C47.6254 86.6767 48.7274 84.9468 50.2523 83.0759C51.0083 82.1404 51.7772 81.1666 52.6742 80.1542C53.5712 79.1419 54.5579 78.0911 55.5574 76.9891C56.5826 75.887 57.6846 74.8619 58.8251 73.9136C59.94 72.9654 61.0676 72.0812 62.2209 71.2739C64.5275 69.6592 66.8597 68.3266 68.8844 67.2758C70.9347 66.225 72.7543 65.4561 74.0614 64.9564C75.3685 64.4566 76.163 64.2388 76.163 64.2388C76.163 64.2388 75.9195 65.7252 75.4069 68.0831C75.1506 69.262 74.7534 70.6588 74.3177 72.1965C74.0998 72.9654 73.8564 73.7727 73.5873 74.5928C73.2925 75.4257 72.985 76.2715 72.6646 77.13C72.3315 77.9886 71.9983 78.8728 71.6395 79.757C71.2551 80.6412 70.8322 81.5254 70.4093 82.3967C69.9736 83.2809 69.5379 84.1523 69.0766 85.0109C68.6025 85.8694 68.0771 86.7024 67.5645 87.5225C67.0519 88.3426 66.5137 89.1371 65.9755 89.906C65.4245 90.662 64.8351 91.3924 64.2456 92.0844C63.0795 93.4555 61.9134 94.6857 60.6576 95.6852Z" fill="#828B2F"/>
<path d="M36.6691 94.993C39.6933 97.479 42.3587 99.1064 44.7806 100.067C47.1512 101.041 49.1503 101.387 50.7905 101.259C54.071 101.003 55.9547 98.9398 56.5313 95.8644C56.6851 95.0955 56.7107 94.301 56.7107 93.4553C56.7107 92.6095 56.621 91.751 56.4288 90.8539C56.2494 89.9569 55.9419 89.0471 55.5831 88.086C55.2499 87.125 54.8142 86.1383 54.276 85.1259C53.1484 83.1013 51.8285 80.91 49.996 78.5778C49.0862 77.4117 48.1636 76.1815 47.0615 74.9129C45.9723 73.6442 44.7806 72.3372 43.5632 70.9532C42.3202 69.5693 40.9747 68.3007 39.5779 67.1217C38.2196 65.9428 36.8357 64.8536 35.4261 63.8541C32.5941 61.8678 29.7365 60.2276 27.2377 58.9462C24.7133 57.6647 22.4707 56.7293 20.8561 56.1398C19.2415 55.5504 18.2548 55.2812 18.2548 55.2812C18.2548 55.2812 18.5239 57.165 19.0878 60.1635C19.3697 61.6628 19.831 63.4312 20.3307 65.3918C20.587 66.3657 20.8561 67.378 21.1637 68.4288C21.4969 69.4796 21.8685 70.556 22.2401 71.6452C22.6245 72.7344 23.0218 73.8493 23.4446 74.9641C23.8931 76.079 24.3929 77.1938 24.9055 78.2959C25.4052 79.4107 25.9434 80.5127 26.4945 81.5892C27.0583 82.6656 27.6862 83.7292 28.3013 84.7543C28.9292 85.7795 29.5571 86.779 30.2106 87.7401C30.8642 88.7011 31.5946 89.5981 32.2994 90.4695C33.709 92.2123 35.1057 93.75 36.6691 94.993Z" fill="#D5DB3F"/>
</g>
<defs>
<clipPath id="clip0_244_142">
<rect width="101.285" height="101.285" fill="white" transform="translate(0.263489)"/>
</clipPath>
</defs>
</svg>
