<svg width="286" height="195" viewBox="0 0 286 195" fill="none" xmlns="http://www.w3.org/2000/svg">
<g clip-path="url(#clip0_244_141)">
<path d="M142.906 0C114.932 0 92.2635 22.6686 92.2635 50.6424C92.2635 78.6162 114.932 101.285 142.906 101.285C170.88 101.285 193.548 78.6162 193.548 50.6424C193.548 22.6686 170.88 0 142.906 0ZM142.906 92.3404C119.878 92.3404 101.208 73.6698 101.208 50.6424C101.208 27.615 119.878 8.94443 142.906 8.94443C165.933 8.94443 184.604 27.615 184.604 50.6424C184.604 73.6698 165.933 92.3404 142.906 92.3404Z" fill="#023F3A"/>
<path d="M157.655 49.3989C150.492 54.9347 145.482 55.255 143.367 52.5256C141.253 49.7833 142.829 45.0163 149.992 39.4805C157.155 33.9447 169.316 32.4839 169.316 32.4839C169.316 32.4839 164.818 43.863 157.655 49.3989Z" fill="#E7AD4B"/>
<path d="M157.655 65.4423C150.492 70.9781 145.482 71.2985 143.367 68.569C141.253 65.8267 142.829 61.0598 149.992 55.524C157.155 49.9882 169.316 48.5273 169.316 48.5273C169.316 48.5273 164.818 59.9193 157.655 65.4423Z" fill="#DF922F"/>
<path d="M128.374 49.3989C135.538 54.9347 140.548 55.255 142.662 52.5256C144.777 49.7833 143.201 45.0163 136.037 39.4805C128.874 33.9447 116.713 32.4839 116.713 32.4839C116.713 32.4839 121.211 43.863 128.374 49.3989Z" fill="#DF922F"/>
<path d="M128.374 65.4423C135.538 70.9781 140.548 71.2985 142.662 68.569C144.777 65.8267 143.201 61.0598 136.037 55.524C128.874 49.9882 116.713 48.5273 116.713 48.5273C116.713 48.5273 121.211 59.9193 128.374 65.4423Z" fill="#E7AD4B"/>
<path d="M143.752 95.6977V18.0811H142.073V95.8258C142.637 95.7746 143.188 95.7361 143.752 95.6977Z" fill="#DF922F"/>
<path d="M149.185 26.0132C149.185 36.8157 146.379 41.7749 142.919 41.7749C139.459 41.7749 136.652 36.8029 136.652 26.0132C136.652 15.2107 142.919 2.67822 142.919 2.67822C142.919 2.67822 149.185 15.2107 149.185 26.0132Z" fill="#E7AD4B"/>
<path d="M152.658 95.6852C150.172 97.6971 148.006 99.017 146.045 99.8243C144.11 100.632 142.509 100.939 141.189 100.875C138.562 100.734 137.101 99.1579 136.691 96.7488C136.588 96.1466 136.563 95.5186 136.588 94.8651C136.601 94.2116 136.691 93.5196 136.857 92.8148C137.024 92.11 137.28 91.3924 137.588 90.6364C137.87 89.8803 138.241 89.0987 138.69 88.2913C139.625 86.6767 140.727 84.9468 142.252 83.0759C143.008 82.1404 143.777 81.1666 144.674 80.1542C145.571 79.1419 146.558 78.0911 147.557 76.9891C148.583 75.887 149.685 74.8619 150.825 73.9136C151.94 72.9654 153.068 72.0812 154.221 71.2739C156.528 69.6592 158.86 68.3266 160.884 67.2758C162.935 66.225 164.754 65.4561 166.061 64.9564C167.368 64.4566 168.163 64.2388 168.163 64.2388C168.163 64.2388 167.919 65.7252 167.407 68.0831C167.151 69.262 166.753 70.6588 166.318 72.1965C166.1 72.9654 165.856 73.7727 165.587 74.5928C165.293 75.4257 164.985 76.2715 164.665 77.13C164.331 77.9886 163.998 78.8728 163.639 79.757C163.255 80.6412 162.832 81.5254 162.409 82.3967C161.974 83.2809 161.538 84.1523 161.077 85.0109C160.602 85.8694 160.077 86.7024 159.565 87.5225C159.052 88.3426 158.514 89.1371 157.976 89.906C157.425 90.662 156.835 91.3924 156.246 92.0844C155.079 93.4555 153.913 94.6857 152.658 95.6852Z" fill="#828B2F"/>
<path d="M128.669 94.993C131.693 97.479 134.359 99.1064 136.781 100.067C139.151 101.041 141.15 101.387 142.791 101.259C146.071 101.003 147.955 98.9398 148.531 95.8644C148.685 95.0955 148.711 94.301 148.711 93.4553C148.711 92.6095 148.621 91.751 148.429 90.8539C148.249 89.9569 147.942 89.0471 147.583 88.086C147.25 87.125 146.814 86.1383 146.276 85.1259C145.148 83.1013 143.828 80.91 141.996 78.5778C141.086 77.4117 140.164 76.1815 139.062 74.9129C137.972 73.6442 136.781 72.3372 135.563 70.9532C134.32 69.5693 132.975 68.3007 131.578 67.1217C130.22 65.9428 128.836 64.8536 127.426 63.8541C124.594 61.8678 121.736 60.2276 119.238 58.9462C116.713 57.6647 114.471 56.7293 112.856 56.1398C111.242 55.5504 110.255 55.2812 110.255 55.2812C110.255 55.2812 110.524 57.165 111.088 60.1635C111.37 61.6628 111.831 63.4312 112.331 65.3918C112.587 66.3657 112.856 67.378 113.164 68.4288C113.497 69.4796 113.868 70.556 114.24 71.6452C114.625 72.7344 115.022 73.8493 115.445 74.9641C115.893 76.079 116.393 77.1938 116.905 78.2959C117.405 79.4107 117.943 80.5127 118.494 81.5892C119.058 82.6656 119.686 83.7292 120.301 84.7543C120.929 85.7795 121.557 86.779 122.211 87.7401C122.864 88.7011 123.595 89.5981 124.299 90.4695C125.709 92.2123 127.106 93.75 128.669 94.993Z" fill="#D5DB3F"/>
</g>
<path d="M24.1884 131.062C26.5428 131.062 28.7196 131.706 30.7186 132.995C32.7177 134.238 34.3169 135.949 35.5163 138.126C36.7157 140.302 37.3155 142.746 37.3155 145.455C37.3155 148.165 36.7157 150.631 35.5163 152.852C34.3169 155.029 32.7177 156.783 30.7186 158.116C28.7196 159.404 26.5428 160.048 24.1884 160.048H11.3279L11.861 158.982V174.308C11.861 175.285 11.55 176.107 10.9281 176.774C10.3506 177.396 9.57319 177.707 8.59588 177.707C7.66299 177.707 6.88559 177.396 6.26367 176.774C5.68616 176.107 5.39741 175.285 5.39741 174.308V134.461C5.39741 133.483 5.73059 132.684 6.39693 132.062C7.06328 131.395 7.8629 131.062 8.79578 131.062H24.1884ZM24.1884 153.651C25.3434 153.651 26.3874 153.274 27.3202 152.519C28.2976 151.763 29.075 150.764 29.6525 149.52C30.2744 148.276 30.5853 146.921 30.5853 145.455C30.5853 143.989 30.2744 142.657 29.6525 141.457C29.075 140.258 28.2976 139.303 27.3202 138.592C26.3874 137.837 25.3434 137.459 24.1884 137.459H11.1946L11.861 136.46V154.518L11.2613 153.651H24.1884ZM70.4798 142.657C71.4127 142.657 72.1901 142.99 72.812 143.656C73.4783 144.278 73.8115 145.078 73.8115 146.055V163.58C73.8115 168.2 72.5232 171.82 69.9467 174.441C67.3701 177.018 63.7274 178.306 59.0186 178.306C54.3542 178.306 50.7337 177.018 48.1571 174.441C45.625 171.82 44.359 168.2 44.359 163.58V146.055C44.359 145.078 44.6699 144.278 45.2918 143.656C45.9138 142.99 46.7134 142.657 47.6907 142.657C48.6236 142.657 49.401 142.99 50.0229 143.656C50.6893 144.278 51.0224 145.078 51.0224 146.055V163.58C51.0224 166.467 51.6888 168.622 53.0215 170.044C54.3986 171.465 56.3976 172.176 59.0186 172.176C61.684 172.176 63.7052 171.465 65.0824 170.044C66.4595 168.622 67.148 166.467 67.148 163.58V146.055C67.148 145.078 67.459 144.278 68.0809 143.656C68.7028 142.99 69.5025 142.657 70.4798 142.657ZM81.0117 172.242C80.6119 171.621 80.4342 170.91 80.4786 170.11C80.523 169.266 80.9895 168.555 81.878 167.978C82.4999 167.578 83.144 167.423 83.8104 167.511C84.5211 167.556 85.1875 167.889 85.8094 168.511C87.0533 169.888 88.4304 170.976 89.9408 171.776C91.4956 172.576 93.3613 172.975 95.5381 172.975C96.4265 172.931 97.3372 172.798 98.2701 172.576C99.203 172.309 100.003 171.865 100.669 171.243C101.335 170.577 101.668 169.622 101.668 168.378C101.668 167.267 101.313 166.379 100.602 165.712C99.8915 165.046 98.9587 164.513 97.8037 164.113C96.6487 163.669 95.4048 163.269 94.0721 162.914C92.6506 162.514 91.2068 162.07 89.7409 161.581C88.3193 161.092 87.031 160.47 85.876 159.715C84.721 158.916 83.7659 157.894 83.0107 156.65C82.3 155.406 81.9446 153.874 81.9446 152.052C81.9446 149.964 82.5221 148.165 83.6771 146.655C84.8765 145.144 86.4091 143.967 88.2749 143.123C90.1851 142.279 92.2508 141.857 94.4719 141.857C95.7602 141.857 97.1151 142.035 98.5366 142.39C99.9582 142.701 101.335 143.212 102.668 143.923C104.001 144.634 105.156 145.566 106.133 146.721C106.577 147.299 106.822 147.987 106.866 148.787C106.955 149.587 106.599 150.297 105.8 150.919C105.267 151.364 104.623 151.564 103.867 151.519C103.112 151.475 102.49 151.23 102.002 150.786C101.158 149.72 100.069 148.898 98.7365 148.321C97.4038 147.699 95.8935 147.388 94.2054 147.388C93.3613 147.388 92.4729 147.521 91.54 147.788C90.6515 148.01 89.8963 148.432 89.2744 149.054C88.6525 149.676 88.3415 150.586 88.3415 151.786C88.3415 152.896 88.6969 153.785 89.4077 154.451C90.1629 155.117 91.1402 155.673 92.3396 156.117C93.539 156.561 94.8495 156.961 96.2711 157.316C97.6482 157.672 99.0031 158.094 100.336 158.582C101.713 159.071 102.935 159.715 104.001 160.515C105.111 161.27 106 162.269 106.666 163.513C107.377 164.713 107.732 166.245 107.732 168.111C107.732 170.288 107.088 172.154 105.8 173.708C104.556 175.219 102.957 176.374 101.002 177.173C99.0919 177.973 97.0707 178.373 94.9384 178.373C92.4062 178.373 89.8741 177.929 87.342 177.04C84.8543 176.107 82.7442 174.508 81.0117 172.242ZM144.138 142.124C145.116 142.124 145.915 142.457 146.537 143.123C147.159 143.745 147.47 144.545 147.47 145.522V174.308C147.47 175.285 147.159 176.107 146.537 176.774C145.915 177.396 145.116 177.707 144.138 177.707C143.205 177.707 142.406 177.396 141.739 176.774C141.117 176.107 140.806 175.285 140.806 174.308V169.51L142.206 169.71C142.206 170.51 141.873 171.398 141.206 172.376C140.584 173.353 139.718 174.308 138.608 175.241C137.497 176.13 136.186 176.885 134.676 177.507C133.166 178.084 131.544 178.373 129.812 178.373C126.747 178.373 123.992 177.595 121.549 176.041C119.106 174.441 117.173 172.265 115.752 169.51C114.33 166.756 113.62 163.624 113.62 160.115C113.62 156.517 114.33 153.363 115.752 150.653C117.173 147.899 119.084 145.744 121.482 144.189C123.926 142.634 126.635 141.857 129.612 141.857C131.522 141.857 133.277 142.168 134.876 142.79C136.52 143.412 137.941 144.211 139.141 145.189C140.34 146.166 141.251 147.21 141.873 148.321C142.539 149.387 142.872 150.409 142.872 151.386L140.806 151.586V145.522C140.806 144.589 141.117 143.789 141.739 143.123C142.406 142.457 143.205 142.124 144.138 142.124ZM130.545 172.242C132.633 172.242 134.476 171.709 136.075 170.643C137.675 169.577 138.919 168.133 139.807 166.312C140.695 164.446 141.14 162.381 141.14 160.115C141.14 157.805 140.695 155.739 139.807 153.918C138.919 152.097 137.675 150.653 136.075 149.587C134.476 148.521 132.633 147.987 130.545 147.987C128.501 147.987 126.68 148.521 125.081 149.587C123.526 150.653 122.282 152.097 121.349 153.918C120.461 155.739 120.016 157.805 120.016 160.115C120.016 162.381 120.461 164.446 121.349 166.312C122.282 168.133 123.526 169.577 125.081 170.643C126.68 171.709 128.501 172.242 130.545 172.242Z" fill="#023F3A"/>
<path d="M172.731 177.707C171.665 177.707 170.798 177.396 170.132 176.774C169.51 176.107 169.199 175.285 169.199 174.308V134.394H176.329V174.308C176.329 175.285 175.974 176.107 175.263 176.774C174.597 177.396 173.753 177.707 172.731 177.707ZM157.605 137.459C156.672 137.459 155.872 137.17 155.206 136.593C154.539 135.971 154.206 135.171 154.206 134.194C154.206 133.261 154.539 132.506 155.206 131.928C155.872 131.351 156.672 131.062 157.605 131.062H187.923C188.856 131.062 189.634 131.373 190.256 131.995C190.922 132.573 191.255 133.328 191.255 134.261C191.255 135.238 190.922 136.015 190.256 136.593C189.634 137.17 188.856 137.459 187.923 137.459H157.605ZM220.143 142.124C221.121 142.124 221.92 142.457 222.542 143.123C223.164 143.745 223.475 144.545 223.475 145.522V174.308C223.475 175.285 223.164 176.107 222.542 176.774C221.92 177.396 221.121 177.707 220.143 177.707C219.211 177.707 218.411 177.396 217.745 176.774C217.123 176.107 216.812 175.285 216.812 174.308V169.51L218.211 169.71C218.211 170.51 217.878 171.398 217.212 172.376C216.59 173.353 215.723 174.308 214.613 175.241C213.502 176.13 212.192 176.885 210.681 177.507C209.171 178.084 207.549 178.373 205.817 178.373C202.752 178.373 199.998 177.595 197.554 176.041C195.111 174.441 193.179 172.265 191.757 169.51C190.336 166.756 189.625 163.624 189.625 160.115C189.625 156.517 190.336 153.363 191.757 150.653C193.179 147.899 195.089 145.744 197.488 144.189C199.931 142.634 202.641 141.857 205.617 141.857C207.527 141.857 209.282 142.168 210.881 142.79C212.525 143.412 213.946 144.211 215.146 145.189C216.345 146.166 217.256 147.21 217.878 148.321C218.544 149.387 218.877 150.409 218.877 151.386L216.812 151.586V145.522C216.812 144.589 217.123 143.789 217.745 143.123C218.411 142.457 219.211 142.124 220.143 142.124ZM206.55 172.242C208.638 172.242 210.481 171.709 212.081 170.643C213.68 169.577 214.924 168.133 215.812 166.312C216.701 164.446 217.145 162.381 217.145 160.115C217.145 157.805 216.701 155.739 215.812 153.918C214.924 152.097 213.68 150.653 212.081 149.587C210.481 148.521 208.638 147.987 206.55 147.987C204.507 147.987 202.685 148.521 201.086 149.587C199.531 150.653 198.287 152.097 197.354 153.918C196.466 155.739 196.022 157.805 196.022 160.115C196.022 162.381 196.466 164.446 197.354 166.312C198.287 168.133 199.531 169.577 201.086 170.643C202.685 171.709 204.507 172.242 206.55 172.242ZM250.868 141.857C254.022 141.857 256.466 142.523 258.198 143.856C259.931 145.144 261.13 146.899 261.796 149.12C262.507 151.297 262.863 153.74 262.863 156.45V174.308C262.863 175.285 262.529 176.107 261.863 176.774C261.241 177.396 260.464 177.707 259.531 177.707C258.554 177.707 257.754 177.396 257.132 176.774C256.51 176.107 256.199 175.285 256.199 174.308V156.517C256.199 154.917 255.977 153.496 255.533 152.252C255.089 150.964 254.311 149.942 253.201 149.187C252.134 148.387 250.624 147.987 248.669 147.987C246.848 147.987 245.249 148.387 243.872 149.187C242.495 149.942 241.406 150.964 240.607 152.252C239.851 153.496 239.474 154.917 239.474 156.517V174.308C239.474 175.285 239.141 176.107 238.474 176.774C237.852 177.396 237.075 177.707 236.142 177.707C235.165 177.707 234.365 177.396 233.743 176.774C233.121 176.107 232.81 175.285 232.81 174.308V146.055C232.81 145.078 233.121 144.278 233.743 143.656C234.365 142.99 235.165 142.657 236.142 142.657C237.075 142.657 237.852 142.99 238.474 143.656C239.141 144.278 239.474 145.078 239.474 146.055V149.787L238.274 150.453C238.585 149.476 239.118 148.498 239.874 147.521C240.673 146.499 241.628 145.566 242.739 144.722C243.849 143.834 245.093 143.145 246.47 142.657C247.848 142.124 249.314 141.857 250.868 141.857ZM279.844 174.308C279.8 175.285 279.422 176.107 278.711 176.774C278.045 177.396 277.245 177.707 276.312 177.707C275.291 177.707 274.447 177.396 273.78 176.774C273.158 176.107 272.847 175.285 272.847 174.308V134.461C272.847 133.483 273.181 132.684 273.847 132.062C274.513 131.395 275.379 131.062 276.446 131.062C277.334 131.062 278.112 131.395 278.778 132.062C279.489 132.684 279.844 133.483 279.844 134.461V174.308Z" fill="#DF922F"/>
<defs>
<clipPath id="clip0_244_141">
<rect width="101.285" height="101.285" fill="white" transform="translate(92.2635)"/>
</clipPath>
</defs>
</svg>
